<svg width="92" height="92" viewBox="0 0 92 92" fill="none" xmlns="http://www.w3.org/2000/svg">
<path d="M45.6552 11.4999C52.1415 11.4999 58.3621 14.0765 62.9486 18.6631C67.5351 23.2496 70.1118 29.4702 70.1118 35.9565C70.1118 53.9349 57.8452 67.7732 49.7568 76.9349L47.3802 79.6182C47.1763 79.8904 46.9173 80.1165 46.62 80.2816C46.3227 80.4468 45.994 80.5473 45.6552 80.5765C45.3199 80.5546 44.9939 80.457 44.7018 80.291C44.4097 80.125 44.1589 79.895 43.9685 79.6182L41.1702 76.4365C33.5035 67.9649 23.3835 56.3499 21.5052 40.9782C21.0176 37.2278 21.3071 33.4171 22.3557 29.7834C23.4042 26.1497 25.1894 22.7706 27.6002 19.8565C29.6662 17.3848 32.2206 15.3667 35.1032 13.9287C37.9859 12.4906 41.1346 11.6637 44.3518 11.4999H45.6552ZM45.6552 7.66653H44.1602C27.2552 8.5482 15.6402 24.6099 17.6718 41.3999C19.9718 59.9915 33.0052 72.9099 41.0552 82.1099C41.5999 82.8105 42.2975 83.3775 43.0947 83.7675C43.8919 84.1575 44.7677 84.3602 45.6552 84.3602C46.5427 84.3602 47.4184 84.1575 48.2156 83.7675C49.0128 83.3775 49.7104 82.8105 50.2552 82.1099C58.2285 72.9099 73.9452 57.3082 73.9452 36.1099C73.9705 32.3805 73.2571 28.683 71.8463 25.2307C70.4354 21.7784 68.355 18.6395 65.725 15.9953C63.095 13.351 59.9675 11.2537 56.5229 9.82419C53.0782 8.3947 49.3846 7.66138 45.6552 7.66653V7.66653Z" fill="#E34B9B"/>
<path d="M46 24.8021C48.0849 24.8021 50.1231 25.4203 51.8566 26.5787C53.5902 27.737 54.9414 29.3834 55.7392 31.3096C56.5371 33.2359 56.7459 35.3554 56.3391 37.4003C55.9324 39.4452 54.9284 41.3236 53.4541 42.7978C51.9798 44.2721 50.1015 45.2761 48.0566 45.6829C46.0117 46.0896 43.8921 45.8809 41.9659 45.083C40.0396 44.2851 38.3933 42.934 37.2349 41.2004C36.0766 39.4668 35.4583 37.4287 35.4583 35.3438C35.4583 33.9594 35.731 32.5886 36.2608 31.3096C36.7905 30.0307 37.567 28.8686 38.5459 27.8897C40.5229 25.9127 43.2042 24.8021 46 24.8021ZM46 20.9688C43.1569 20.9687 40.3776 21.8118 38.0137 23.3914C35.6497 24.9709 33.8072 27.216 32.7192 29.8427C31.6312 32.4694 31.3466 35.3597 31.9012 38.1482C32.4559 40.9367 33.825 43.498 35.8353 45.5084C37.8457 47.5188 40.4071 48.8879 43.1956 49.4425C45.9841 49.9972 48.8744 49.7125 51.5011 48.6245C54.1278 47.5365 56.3728 45.694 57.9524 43.3301C59.5319 40.9661 60.375 38.1869 60.375 35.3438C60.375 31.5313 58.8605 27.8749 56.1647 25.1791C53.4688 22.4833 49.8125 20.9688 46 20.9688V20.9688Z" fill="#E34B9B"/>
</svg>
