<svg width="92" height="92" viewBox="0 0 92 92" fill="none" xmlns="http://www.w3.org/2000/svg">
<path d="M71.0326 49.8335C70.5085 49.3222 69.8987 48.907 69.2309 48.6068C70.099 47.4962 70.5381 46.11 70.4677 44.7021C70.3973 43.2942 69.8222 41.9587 68.8476 40.9402C68.3096 40.4283 67.687 40.0132 67.0076 39.7135C67.9185 38.5749 68.379 37.141 68.3012 35.6848C68.2235 34.2287 67.613 32.852 66.5859 31.8168C66.0914 31.315 65.506 30.9117 64.8609 30.6285L69.2309 26.2202C70.3615 25.1429 71.0535 23.6855 71.1738 22.1285C71.2941 20.5715 70.8342 19.025 69.8826 17.7868C69.3432 17.0378 68.6357 16.4256 67.8168 15.9995C66.9979 15.5735 66.0906 15.3453 65.1676 15.3335C64.377 15.3316 63.5939 15.4864 62.8635 15.7891C62.1331 16.0918 61.47 16.5363 60.9126 17.0968L40.5576 37.5285L33.8876 44.2368V35.7268C34.0242 34.8931 33.9778 34.0396 33.7517 33.2255C33.5257 32.4115 33.1252 31.6563 32.5783 31.0124C32.0313 30.3685 31.3508 29.8513 30.584 29.4966C29.8172 29.1418 28.9824 28.9581 28.1376 28.9581C27.2927 28.9581 26.4579 29.1418 25.6911 29.4966C24.9243 29.8513 24.2439 30.3685 23.6969 31.0124C23.1499 31.6563 22.7495 32.4115 22.5234 33.2255C22.2973 34.0396 22.251 34.8931 22.3876 35.7268V54.8935C22.3824 55.5422 22.1205 56.1624 21.6592 56.6185L15.9859 62.1385C15.6371 62.4903 15.4414 62.9656 15.4414 63.461C15.4414 63.9564 15.6371 64.4317 15.9859 64.7835L30.6676 79.5418C31.2793 80.1499 32.1051 80.4939 32.9676 80.5002H47.2659C47.6995 80.5021 48.1293 80.4184 48.5305 80.254C48.9318 80.0895 49.2967 79.8475 49.6042 79.5418L67.9276 61.3335L71.0326 58.2285C72.1172 57.1003 72.723 55.596 72.723 54.031C72.723 52.466 72.1172 50.9617 71.0326 49.8335ZM62.5226 49.8335L60.0309 52.3252L57.3092 55.0468C57.1468 55.1931 57.0049 55.3607 56.8876 55.5452C56.5901 55.7375 56.2451 55.8437 55.8909 55.8518C55.5979 55.8681 55.3048 55.8229 55.0303 55.7194C54.7558 55.6158 54.5059 55.4561 54.2966 55.2505C54.0873 55.0448 53.9233 54.7977 53.815 54.525C53.7067 54.2523 53.6565 53.96 53.6676 53.6668C53.6754 53.1201 53.8953 52.5978 54.2809 52.2102L57.0026 49.4885L62.9826 43.5085C63.1766 43.3095 63.4093 43.1523 63.6665 43.0468C63.9236 42.9413 64.1997 42.8897 64.4776 42.8952C65.0235 42.905 65.5443 43.1263 65.9304 43.5124C66.3165 43.8984 66.5377 44.4193 66.5476 44.9652C66.5578 45.2437 66.5084 45.5212 66.4026 45.779C66.2968 46.0369 66.1371 46.2691 65.9342 46.4602L63.4426 48.9902C63.1058 49.2366 62.7973 49.5194 62.5226 49.8335ZM62.5226 33.7335C62.9405 33.7423 63.3468 33.8729 63.6916 34.1093C64.0364 34.3458 64.3046 34.6777 64.4634 35.0645C64.6221 35.4512 64.6645 35.8759 64.5853 36.2864C64.5061 36.6968 64.3088 37.0753 64.0176 37.3752L60.6442 40.7868L54.6642 46.7668L51.9426 49.4885C51.7505 49.6927 51.5189 49.8558 51.262 49.9678C51.005 50.0798 50.7279 50.1384 50.4476 50.1402C50.1615 50.1392 49.8784 50.0811 49.6151 49.9692C49.3518 49.8573 49.1135 49.6938 48.9142 49.4885C48.5418 49.1026 48.3337 48.5873 48.3337 48.051C48.3337 47.5147 48.5418 46.9994 48.9142 46.6135L49.2592 46.3452L51.6742 43.9302L61.3342 33.9252C61.6382 33.7061 61.9959 33.5736 62.3692 33.5418L62.5226 33.7335ZM47.0742 76.6668H33.2359L20.0876 63.4802L23.3076 60.2218L25.1859 58.3818C25.7871 57.7222 26.1159 56.8593 26.1059 55.9668V35.7268C26.0212 35.4302 26.0064 35.1179 26.0629 34.8146C26.1193 34.5113 26.2454 34.2252 26.4312 33.9789C26.617 33.7326 26.8575 33.5328 27.1336 33.3952C27.4097 33.2576 27.714 33.186 28.0226 33.186C28.3311 33.186 28.6354 33.2576 28.9115 33.3952C29.1877 33.5328 29.4281 33.7326 29.6139 33.9789C29.7997 34.2252 29.9258 34.5113 29.9822 34.8146C30.0387 35.1179 30.024 35.4302 29.9392 35.7268V48.0702C29.8067 49.0446 30.0537 50.0327 30.6292 50.8302C30.9441 51.1836 31.2384 51.5548 31.5109 51.9418C32.3294 53.2086 32.7561 54.6887 32.7376 56.1968C32.6367 59.0604 31.7911 61.8481 30.2842 64.2852C30.1061 64.4892 29.9732 64.7286 29.8944 64.9878C29.8155 65.2469 29.7925 65.5197 29.8268 65.7884C29.861 66.0571 29.9519 66.3154 30.0933 66.5464C30.2347 66.7774 30.4234 66.9758 30.6471 67.1286C30.8707 67.2813 31.1242 67.3849 31.3909 67.4326C31.6575 67.4802 31.9312 67.4708 32.1939 67.405C32.4566 67.3391 32.7024 67.2184 32.915 67.0506C33.1277 66.8829 33.3024 66.672 33.4276 66.4318C35.4037 63.3774 36.4919 59.8339 36.5709 56.1968C36.6293 53.9528 36.0296 51.7408 34.8459 49.8335C34.6995 49.6552 34.6195 49.4317 34.6195 49.201C34.6195 48.9703 34.6995 48.7468 34.8459 48.5685L39.2542 44.1602L43.0876 40.5185L43.3559 40.2118L45.7709 37.7968L63.8259 19.7418C64.1922 19.3993 64.6669 19.1959 65.1676 19.1668C65.7571 19.1671 66.3225 19.4015 66.7392 19.8185C67.1419 20.2273 67.3676 20.7781 67.3676 21.3518C67.3676 21.9256 67.1419 22.4764 66.7392 22.8852L58.6892 30.9735C58.4413 31.128 58.21 31.3079 57.9992 31.5102L48.6076 40.9018L45.9242 43.5852C44.8529 44.6862 44.2368 46.1511 44.1992 47.6868C44.1777 49.2203 44.7539 50.7019 45.8056 51.8181C46.8574 52.9342 48.3022 53.5973 49.8342 53.6668C49.8531 55.1459 50.4413 56.5608 51.4765 57.6174C52.5117 58.674 53.9142 59.291 55.3926 59.3402C55.4844 60.7925 56.1129 62.1587 57.1559 63.1735C57.6855 63.7056 58.3095 64.1345 58.9959 64.4385L47.0742 76.6668ZM68.3109 55.4302L65.8192 57.9218L63.0976 60.6435C62.8983 60.8488 62.66 61.0123 62.3967 61.1242C62.1334 61.2361 61.8504 61.2942 61.5642 61.2952C61.272 61.2972 60.9823 61.2405 60.7124 61.1286C60.4424 61.0167 60.1977 60.8517 59.9926 60.6435C59.6572 60.2969 59.4483 59.8474 59.3997 59.3675C59.351 58.8877 59.4653 58.4054 59.7242 57.9985C59.83 57.9088 59.9458 57.8316 60.0692 57.7685L62.7909 55.0468L65.8959 51.9418C66.1607 51.8798 66.4362 51.8798 66.7009 51.9418C66.987 51.9428 67.2701 52.0009 67.5334 52.1129C67.7967 52.2248 68.035 52.3882 68.2342 52.5935C68.4432 52.79 68.609 53.0278 68.7211 53.2917C68.8333 53.5557 68.8894 53.8401 68.8859 54.1268C68.8482 54.6141 68.6453 55.0738 68.3109 55.4302Z" fill="#E34B9B"/>
<path d="M38.3327 23C37.8244 23 37.3368 22.7981 36.9774 22.4386C36.6179 22.0792 36.416 21.5917 36.416 21.0833V13.4167C36.416 12.9083 36.6179 12.4208 36.9774 12.0614C37.3368 11.7019 37.8244 11.5 38.3327 11.5C38.841 11.5 39.3285 11.7019 39.688 12.0614C40.0474 12.4208 40.2493 12.9083 40.2493 13.4167V21.0833C40.2493 21.5917 40.0474 22.0792 39.688 22.4386C39.3285 22.7981 38.841 23 38.3327 23Z" fill="#DA0F7A"/>
<path d="M33.3502 25.6837C33.0995 25.6822 32.8516 25.6306 32.6212 25.5318C32.3908 25.4331 32.1825 25.2892 32.0085 25.1087L26.5652 19.6653C26.3818 19.4932 26.2357 19.2854 26.1358 19.0546C26.0359 18.8239 25.9844 18.5751 25.9844 18.3237C25.9844 18.0722 26.0359 17.8234 26.1358 17.5927C26.2357 17.3619 26.3818 17.1541 26.5652 16.982C26.7434 16.8023 26.9554 16.6598 27.1889 16.5624C27.4225 16.4651 27.673 16.415 27.926 16.415C28.1791 16.415 28.4296 16.4651 28.6631 16.5624C28.8967 16.6598 29.1087 16.8023 29.2869 16.982L34.6919 22.4253C34.8752 22.5974 35.0213 22.8052 35.1212 23.036C35.2211 23.2667 35.2727 23.5155 35.2727 23.767C35.2727 24.0184 35.2211 24.2672 35.1212 24.498C35.0213 24.7287 34.8752 24.9366 34.6919 25.1087C34.5207 25.2928 34.3129 25.4391 34.0819 25.5381C33.8508 25.6371 33.6016 25.6867 33.3502 25.6837Z" fill="#DA0F7A"/>
<path d="M43.2394 25.6837C42.8642 25.6784 42.4989 25.5632 42.1886 25.3522C41.8784 25.1413 41.6368 24.8439 41.494 24.497C41.3511 24.15 41.3132 23.7688 41.385 23.4006C41.4568 23.0323 41.635 22.6932 41.8977 22.4253L47.341 16.982C47.6969 16.6262 48.1795 16.4263 48.6827 16.4263C49.1859 16.4263 49.6685 16.6262 50.0244 16.982C50.3802 17.3378 50.5801 17.8205 50.5801 18.3237C50.5801 18.8269 50.3802 19.3095 50.0244 19.6653L44.6194 25.1087C44.2537 25.4756 43.7574 25.6824 43.2394 25.6837Z" fill="#DA0F7A"/>
</svg>
