<svg width="92" height="92" viewBox="0 0 92 92" fill="none" xmlns="http://www.w3.org/2000/svg">
<path d="M76.3977 19.1668C77.4855 19.1668 78.5288 19.599 79.298 20.3682C80.0672 21.1374 80.4994 22.1807 80.4994 23.2685V68.7318C80.4994 69.2705 80.3933 69.8038 80.1871 70.3015C79.981 70.7991 79.6789 71.2513 79.298 71.6321C78.9171 72.013 78.465 72.3151 77.9673 72.5213C77.4697 72.7274 76.9363 72.8335 76.3977 72.8335H15.601C15.0624 72.8335 14.529 72.7274 14.0314 72.5213C13.5337 72.3151 13.0816 72.013 12.7007 71.6321C12.3198 71.2513 12.0177 70.7991 11.8116 70.3015C11.6054 69.8038 11.4993 69.2705 11.4993 68.7318V23.2685C11.4993 22.1807 11.9315 21.1374 12.7007 20.3682C13.4699 19.599 14.5132 19.1668 15.601 19.1668H76.3977ZM76.3977 15.3335H15.601C13.4965 15.3335 11.4782 16.1695 9.99012 17.6576C8.50202 19.1457 7.66602 21.164 7.66602 23.2685V68.7318C7.66602 70.8363 8.50202 72.8546 9.99012 74.3427C11.4782 75.8308 13.4965 76.6668 15.601 76.6668H76.3977C78.5022 76.6668 80.5205 75.8308 82.0086 74.3427C83.4967 72.8546 84.3327 70.8363 84.3327 68.7318V23.2685C84.3327 21.164 83.4967 19.1457 82.0086 17.6576C80.5205 16.1695 78.5022 15.3335 76.3977 15.3335Z" fill="#E34B9B"/>
<path d="M19.1673 30.6667C21.2844 30.6667 23.0007 28.9504 23.0007 26.8333C23.0007 24.7162 21.2844 23 19.1673 23C17.0502 23 15.334 24.7162 15.334 26.8333C15.334 28.9504 17.0502 30.6667 19.1673 30.6667Z" fill="#E34B9B"/>
<path d="M30.6673 30.6667C32.7844 30.6667 34.5007 28.9504 34.5007 26.8333C34.5007 24.7162 32.7844 23 30.6673 23C28.5502 23 26.834 24.7162 26.834 26.8333C26.834 28.9504 28.5502 30.6667 30.6673 30.6667Z" fill="#E34B9B"/>
<path d="M42.1673 30.6667C44.2844 30.6667 46.0007 28.9504 46.0007 26.8333C46.0007 24.7162 44.2844 23 42.1673 23C40.0502 23 38.334 24.7162 38.334 26.8333C38.334 28.9504 40.0502 30.6667 42.1673 30.6667Z" fill="#E34B9B"/>
<path d="M72.8333 28.7498H53.6667C53.1583 28.7498 52.6708 28.5479 52.3114 28.1885C51.9519 27.829 51.75 27.3415 51.75 26.8332C51.75 26.3248 51.9519 25.8373 52.3114 25.4779C52.6708 25.1184 53.1583 24.9165 53.6667 24.9165H72.8333C73.3417 24.9165 73.8292 25.1184 74.1886 25.4779C74.5481 25.8373 74.75 26.3248 74.75 26.8332C74.75 27.3415 74.5481 27.829 74.1886 28.1885C73.8292 28.5479 73.3417 28.7498 72.8333 28.7498Z" fill="#E34B9B"/>
<path d="M33.5414 42.1665H35.8798L31.5481 53.6665H29.4781L26.4881 45.6548L23.5364 53.6665H21.4281L17.1348 42.1665H19.5498L22.5781 50.5998L25.6448 42.1665H27.4848L30.6664 50.7915L33.5414 42.1665Z" fill="#E34B9B"/>
<path d="M53.0531 42.1665H55.3531L51.0598 53.6665H48.9898L45.9998 45.5015L43.0481 53.6665H40.9015L36.6465 42.1665H39.0615L42.0898 50.5998L45.1565 42.1665H46.9581L50.0248 50.6765L53.0531 42.1665Z" fill="#E34B9B"/>
<path d="M72.5649 42.1665H74.8649L70.5715 53.6665H68.4632L65.5115 45.6548L62.5215 53.6665H60.4132L56.1582 42.1665H58.5732L61.6015 50.5998L64.6682 42.1665H66.4699L69.5365 50.6765L72.5649 42.1665Z" fill="#E34B9B"/>
</svg>
