<svg width="92" height="92" viewBox="0 0 92 92" fill="none" xmlns="http://www.w3.org/2000/svg">
<path d="M75.746 34.5003C76.3717 34.4952 76.9921 34.6147 77.5711 34.8517C78.1501 35.0888 78.6761 35.4388 79.1185 35.8812C79.5609 36.3236 79.9109 36.8496 80.1479 37.4286C80.385 38.0076 80.5045 38.628 80.4994 39.2537V52.747C80.5045 53.3726 80.385 53.993 80.1479 54.572C79.9109 55.151 79.5609 55.6771 79.1185 56.1195C78.6761 56.5619 78.1501 56.9118 77.5711 57.1489C76.9921 57.386 76.3717 57.5054 75.746 57.5003H16.2527C15.627 57.5054 15.0066 57.386 14.4276 57.1489C13.8486 56.9118 13.3226 56.5619 12.8802 56.1195C12.4378 55.6771 12.0878 55.151 11.8508 54.572C11.6137 53.993 11.4942 53.3726 11.4993 52.747V39.2537C11.4942 38.628 11.6137 38.0076 11.8508 37.4286C12.0878 36.8496 12.4378 36.3236 12.8802 35.8812C13.3226 35.4388 13.8486 35.0888 14.4276 34.8517C15.0066 34.6147 15.627 34.4952 16.2527 34.5003H75.746ZM75.746 30.667H16.2527C13.9754 30.667 11.7913 31.5717 10.181 33.182C8.57068 34.7923 7.66602 36.9763 7.66602 39.2537V52.747C7.66602 55.0243 8.57068 57.2084 10.181 58.8187C11.7913 60.429 13.9754 61.3337 16.2527 61.3337H75.746C78.0233 61.3337 80.2074 60.429 81.8177 58.8187C83.428 57.2084 84.3327 55.0243 84.3327 52.747V39.2537C84.3327 36.9763 83.428 34.7923 81.8177 33.182C80.2074 31.5717 78.0233 30.667 75.746 30.667V30.667Z" fill="#E34B9B"/>
<path d="M30.666 53.6668V38.3335H33.5027V51.3668H40.6327V53.6668H30.666Z" fill="#E34B9B"/>
<path d="M42.7031 53.6668V38.3335H45.5015V53.6668H42.7031Z" fill="#E34B9B"/>
<path d="M60.068 38.3335H62.9047L56.0814 53.6668H53.6664L46.8047 38.3335H49.833L54.9314 50.1785L60.068 38.3335Z" fill="#E34B9B"/>
<path d="M64.3613 53.6668V38.3335H74.6347V40.5568H66.968V44.7735H74.0597V46.9585H67.083V51.4435H74.7497V53.6668H64.3613Z" fill="#E34B9B"/>
<path d="M64.7436 26.8337C64.238 26.8265 63.7558 26.6198 63.4019 26.2587C58.7478 21.7162 52.502 19.1735 45.9986 19.1735C39.4951 19.1735 33.2494 21.7162 28.5953 26.2587C28.4171 26.4383 28.2051 26.5809 27.9715 26.6782C27.738 26.7755 27.4874 26.8256 27.2344 26.8256C26.9814 26.8256 26.7309 26.7755 26.4973 26.6782C26.2638 26.5809 26.0518 26.4383 25.8736 26.2587C25.6939 26.0805 25.5514 25.8685 25.454 25.6349C25.3567 25.4014 25.3066 25.1508 25.3066 24.8978C25.3066 24.6448 25.3567 24.3943 25.454 24.1607C25.5514 23.9272 25.6939 23.7152 25.8736 23.537C31.2396 18.2831 38.4505 15.3408 45.9603 15.3408C53.47 15.3408 60.6809 18.2831 66.0469 23.537C66.2266 23.7152 66.3692 23.9272 66.4665 24.1607C66.5638 24.3943 66.6139 24.6448 66.6139 24.8978C66.6139 25.1508 66.5638 25.4014 66.4665 25.6349C66.3692 25.8685 66.2266 26.0805 66.0469 26.2587C65.7003 26.6074 65.2349 26.8127 64.7436 26.8337V26.8337Z" fill="#E34B9B"/>
<path d="M53.6662 28.4053C53.4135 28.4592 53.1523 28.4592 52.8996 28.4053C50.7226 27.4577 48.3738 26.9687 45.9996 26.9687C43.6253 26.9687 41.2765 27.4577 39.0996 28.4053C38.8681 28.5068 38.6189 28.5616 38.3662 28.5664C38.1135 28.5712 37.8623 28.526 37.6272 28.4334C37.3921 28.3407 37.1776 28.2025 36.996 28.0266C36.8145 27.8508 36.6696 27.6408 36.5696 27.4087C36.3749 26.9401 36.37 26.4141 36.556 25.942C36.742 25.4699 37.1042 25.0886 37.5662 24.8787C40.2274 23.7222 43.098 23.1255 45.9996 23.1255C48.9011 23.1255 51.7717 23.7222 54.4329 24.8787C54.9412 24.9803 55.3883 25.2798 55.6759 25.7111C55.9635 26.1424 56.0679 26.6703 55.9662 27.1787C55.8646 27.687 55.5651 28.1341 55.1338 28.4217C54.7025 28.7092 54.1746 28.8137 53.6662 28.712V28.4053Z" fill="#E34B9B"/>
<path d="M45.9993 76.6673C38.4853 76.6818 31.2683 73.7344 25.9127 68.464C25.733 68.2858 25.5904 68.0738 25.4931 67.8402C25.3958 67.6067 25.3457 67.3561 25.3457 67.1031C25.3457 66.8501 25.3958 66.5996 25.4931 66.366C25.5904 66.1325 25.733 65.9205 25.9127 65.7423C26.2774 65.3887 26.7655 65.1909 27.2735 65.1909C27.7815 65.1909 28.2696 65.3887 28.6343 65.7423C33.2742 70.312 39.5253 72.8735 46.0377 72.8735C52.55 72.8735 58.8011 70.312 63.441 65.7423C63.8057 65.3887 64.2938 65.1909 64.8018 65.1909C65.3098 65.1909 65.7979 65.3887 66.1627 65.7423C66.3423 65.9205 66.4849 66.1325 66.5822 66.366C66.6795 66.5996 66.7296 66.8501 66.7296 67.1031C66.7296 67.3561 66.6795 67.6067 66.5822 67.8402C66.4849 68.0738 66.3423 68.2858 66.1627 68.464C60.7881 73.7532 53.5399 76.7021 45.9993 76.6673V76.6673Z" fill="#E34B9B"/>
<path d="M45.9996 69C43.1003 69.0056 40.2305 68.4186 37.5663 67.275C37.0986 67.0717 36.7309 66.6909 36.544 66.2164C36.3571 65.7419 36.3663 65.2126 36.5696 64.745C36.7729 64.2773 37.1537 63.9096 37.6282 63.7227C38.1027 63.5358 38.6319 63.545 39.0996 63.7483C41.2766 64.6959 43.6254 65.185 45.9996 65.185C48.3739 65.185 50.7227 64.6959 52.8996 63.7483C53.1311 63.6468 53.3803 63.5921 53.633 63.5873C53.8857 63.5825 54.1368 63.6277 54.372 63.7203C54.6071 63.8129 54.8216 63.9512 55.0031 64.127C55.1846 64.3029 55.3296 64.5129 55.4296 64.745C55.6243 65.2136 55.6292 65.7395 55.4432 66.2116C55.2572 66.6838 54.8949 67.0651 54.4329 67.275C51.771 68.426 48.8997 69.0133 45.9996 69V69Z" fill="#E34B9B"/>
<path d="M19.1654 49.8722C21.2825 49.8722 22.9987 48.156 22.9987 46.0389C22.9987 43.9218 21.2825 42.2056 19.1654 42.2056C17.0483 42.2056 15.332 43.9218 15.332 46.0389C15.332 48.156 17.0483 49.8722 19.1654 49.8722Z" fill="#E34B9B"/>
</svg>
