<svg width="92" height="92" viewBox="0 0 92 92" fill="none" xmlns="http://www.w3.org/2000/svg">
<path d="M61.3333 11.4998C62.35 11.4998 63.325 11.9037 64.0439 12.6226C64.7628 13.3415 65.1667 14.3165 65.1667 15.3332V76.6665C65.1667 77.6832 64.7628 78.6582 64.0439 79.3771C63.325 80.096 62.35 80.4998 61.3333 80.4998H30.6667C29.65 80.4998 28.675 80.096 27.9561 79.3771C27.2372 78.6582 26.8333 77.6832 26.8333 76.6665V15.3332C26.8333 14.3165 27.2372 13.3415 27.9561 12.6226C28.675 11.9037 29.65 11.4998 30.6667 11.4998H61.3333ZM61.3333 7.6665H30.6667C28.6333 7.6665 26.6833 8.47424 25.2455 9.91202C23.8077 11.3498 23 13.2998 23 15.3332V76.6665C23 78.6998 23.8077 80.6499 25.2455 82.0877C26.6833 83.5254 28.6333 84.3332 30.6667 84.3332H61.3333C63.3667 84.3332 65.3167 83.5254 66.7545 82.0877C68.1923 80.6499 69 78.6998 69 76.6665V15.3332C69 13.2998 68.1923 11.3498 66.7545 9.91202C65.3167 8.47424 63.3667 7.6665 61.3333 7.6665Z" fill="#E34B9B"/>
<path d="M51.2137 43.8153C50.9427 43.8047 50.673 43.8583 50.4266 43.9715C50.1802 44.0847 49.9639 44.2545 49.7953 44.4669C49.4384 44.9976 49.2635 45.6299 49.297 46.2686C49.2691 46.8947 49.4439 47.513 49.7953 48.0319C49.978 48.2245 50.198 48.3778 50.4418 48.4826C50.6856 48.5874 50.9483 48.6414 51.2137 48.6414C51.4791 48.6414 51.7417 48.5874 51.9856 48.4826C52.2294 48.3778 52.4494 48.2245 52.632 48.0319C52.9999 47.5208 53.1763 46.8966 53.1303 46.2686C53.1757 45.6287 52.9997 44.9926 52.632 44.4669C52.4635 44.2545 52.2472 44.0847 52.0008 43.9715C51.7543 43.8583 51.4847 43.8047 51.2137 43.8153Z" fill="#E34B9B"/>
<path d="M43.6225 42.4347C43.6407 42.1963 43.6015 41.957 43.5081 41.7369C43.4147 41.5168 43.2699 41.3223 43.0858 41.1697C42.5978 40.8515 42.0184 40.7033 41.4375 40.7481H38.8691V44.1597H41.4375C42.0199 44.2238 42.6057 44.0739 43.0858 43.7381C43.273 43.5796 43.4194 43.3785 43.5128 43.1517C43.6062 42.9249 43.6438 42.6791 43.6225 42.4347Z" fill="#E34B9B"/>
<path d="M45.9994 30.6665C42.9667 30.6665 40.0022 31.5658 37.4806 33.2506C34.9591 34.9355 32.9937 37.3302 31.8332 40.132C30.6727 42.9338 30.369 46.0168 30.9606 48.9912C31.5523 51.9656 33.0126 54.6977 35.1571 56.8421C37.3015 58.9865 40.0336 60.4469 43.008 61.0385C45.9823 61.6302 49.0654 61.3265 51.8672 60.166C54.669 59.0054 57.0637 57.0401 58.7486 54.5186C60.4334 51.997 61.3327 49.0325 61.3327 45.9998C61.3327 41.9332 59.7172 38.0331 56.8417 35.1575C53.9661 32.282 50.066 30.6665 45.9994 30.6665ZM43.8527 50.0248L42.0127 46.5748C41.8678 46.2859 41.6412 46.046 41.361 45.8848C41.0583 45.7552 40.732 45.69 40.4027 45.6932H38.8694V50.0248H36.9527V39.2148H41.706C42.7048 39.1424 43.6968 39.4277 44.5044 40.0198C44.8324 40.3185 45.089 40.6873 45.2549 41.0987C45.4208 41.5102 45.4918 41.9538 45.4627 42.3965C45.4942 43.1478 45.2487 43.8844 44.7727 44.4665C44.2637 45.0315 43.5711 45.3982 42.8177 45.5015C43.1211 45.5974 43.4008 45.7562 43.6386 45.9676C43.8764 46.179 44.0669 46.4381 44.1977 46.7282L45.9994 50.0248H43.8527ZM54.6244 48.3382C54.4615 48.9211 54.1277 49.4418 53.666 49.8332C53.1459 50.146 52.5479 50.3055 51.941 50.2932C51.4342 50.3019 50.9334 50.1833 50.4844 49.9482C50.0786 49.7463 49.7442 49.4253 49.526 49.0282V52.8615H47.6094V42.5115H49.4877V43.6615C49.7194 43.2518 50.0658 42.9187 50.4844 42.7032C50.9316 42.4633 51.4337 42.3443 51.941 42.3582C52.5467 42.3557 53.142 42.5144 53.666 42.8182C54.1767 43.1717 54.5757 43.6638 54.816 44.2365C55.1206 44.8691 55.2654 45.5667 55.2377 46.2682C55.2064 46.9981 54.9957 47.709 54.6244 48.3382Z" fill="#E34B9B"/>
<path d="M34.5 7.6665L36.34 12.5732C36.5531 13.3157 36.9855 13.9765 37.5806 14.469C38.1757 14.9615 38.9057 15.2627 39.675 15.3332H52.325C53.0943 15.2627 53.8243 14.9615 54.4194 14.469C55.0145 13.9765 55.4469 13.3157 55.66 12.5732L57.5 7.6665" fill="#E34B9B"/>
</svg>
