<svg width="92" height="92" viewBox="0 0 92 92" fill="none" xmlns="http://www.w3.org/2000/svg">
<path d="M61.3333 7.6665H30.6667C28.6333 7.6665 26.6833 8.47424 25.2455 9.91202C23.8077 11.3498 23 13.2998 23 15.3332V76.6665C23 78.6998 23.8077 80.6499 25.2455 82.0877C26.6833 83.5254 28.6333 84.3332 30.6667 84.3332H61.3333C63.3667 84.3332 65.3167 83.5254 66.7545 82.0877C68.1923 80.6499 69 78.6998 69 76.6665V15.3332C69 13.2998 68.1923 11.3498 66.7545 9.91202C65.3167 8.47424 63.3667 7.6665 61.3333 7.6665ZM65.1667 76.6665C65.1667 77.6832 64.7628 78.6582 64.0439 79.3771C63.325 80.096 62.35 80.4998 61.3333 80.4998H30.6667C29.65 80.4998 28.675 80.096 27.9561 79.3771C27.2372 78.6582 26.8333 77.6832 26.8333 76.6665V15.3332C26.8333 14.3165 27.2372 13.3415 27.9561 12.6226C28.675 11.9037 29.65 11.4998 30.6667 11.4998H35.9183L36.34 12.5732C36.5531 13.3157 36.9855 13.9765 37.5806 14.469C38.1757 14.9615 38.9057 15.2627 39.675 15.3332H52.325C53.0943 15.2627 53.8243 14.9615 54.4194 14.469C55.0145 13.9765 55.4469 13.3157 55.66 12.5732L56.0433 11.4998H61.3333C62.35 11.4998 63.325 11.9037 64.0439 12.6226C64.7628 13.3415 65.1667 14.3165 65.1667 15.3332V76.6665Z" fill="#E34B9B"/>
<path d="M45.9993 26.7956C48.1164 26.7956 49.8327 25.0793 49.8327 22.9622C49.8327 20.8451 48.1164 19.1289 45.9993 19.1289C43.8823 19.1289 42.166 20.8451 42.166 22.9622C42.166 25.0793 43.8823 26.7956 45.9993 26.7956Z" fill="#E34B9B"/>
<path d="M52.0567 33.2733C51.8889 31.7844 51.1786 30.4095 50.0614 29.4111C48.9442 28.4127 47.4983 27.8608 46 27.8608C44.5017 27.8608 43.0559 28.4127 41.9387 29.4111C40.8215 30.4095 40.1111 31.7844 39.9434 33.2733C40.6954 34.1419 41.6255 34.8386 42.6706 35.316C43.7156 35.7935 44.8511 36.0406 46 36.0406C47.149 36.0406 48.2845 35.7935 49.3295 35.316C50.3745 34.8386 51.3046 34.1419 52.0567 33.2733Z" fill="#E34B9B"/>
<path d="M57.5 53.6665H34.5C32.975 53.6665 31.5125 54.2723 30.4341 55.3506C29.3558 56.429 28.75 57.8915 28.75 59.4165V67.0832C28.75 68.6082 29.3558 70.0707 30.4341 71.149C31.5125 72.2274 32.975 72.8332 34.5 72.8332H57.5C59.025 72.8332 60.4875 72.2274 61.5659 71.149C62.6442 70.0707 63.25 68.6082 63.25 67.0832V59.4165C63.25 57.8915 62.6442 56.429 61.5659 55.3506C60.4875 54.2723 59.025 53.6665 57.5 53.6665ZM59.4167 67.0832C59.4167 67.5915 59.2147 68.079 58.8553 68.4385C58.4958 68.7979 58.0083 68.9998 57.5 68.9998H34.5C33.9917 68.9998 33.5042 68.7979 33.1447 68.4385C32.7853 68.079 32.5833 67.5915 32.5833 67.0832V59.4165C32.5833 58.9082 32.7853 58.4207 33.1447 58.0612C33.5042 57.7018 33.9917 57.4998 34.5 57.4998H57.5C58.0083 57.4998 58.4958 57.7018 58.8553 58.0612C59.2147 58.4207 59.4167 58.9082 59.4167 59.4165V67.0832Z" fill="#E34B9B"/>
<path d="M32.5827 49.8333H59.416C59.9243 49.8333 60.4119 49.6314 60.7713 49.272C61.1308 48.9125 61.3327 48.425 61.3327 47.9167C61.3327 47.4083 61.1308 46.9208 60.7713 46.5614C60.4119 46.2019 59.9243 46 59.416 46H32.5827C32.0744 46 31.5868 46.2019 31.2274 46.5614C30.8679 46.9208 30.666 47.4083 30.666 47.9167C30.666 48.425 30.8679 48.9125 31.2274 49.272C31.5868 49.6314 32.0744 49.8333 32.5827 49.8333Z" fill="#E34B9B"/>
<path d="M32.5827 42.1668H59.416C59.9243 42.1668 60.4119 41.9649 60.7713 41.6055C61.1308 41.246 61.3327 40.7585 61.3327 40.2502C61.3327 39.7418 61.1308 39.2543 60.7713 38.8949C60.4119 38.5354 59.9243 38.3335 59.416 38.3335H32.5827C32.0744 38.3335 31.5868 38.5354 31.2274 38.8949C30.8679 39.2543 30.666 39.7418 30.666 40.2502C30.666 40.7585 30.8679 41.246 31.2274 41.6055C31.5868 41.9649 32.0744 42.1668 32.5827 42.1668Z" fill="#E34B9B"/>
</svg>
