<svg width="92" height="92" viewBox="0 0 92 92" fill="none" xmlns="http://www.w3.org/2000/svg">
<path d="M66.316 19.1668C67.0277 19.1668 67.7102 19.4495 68.2134 19.9528C68.7166 20.456 68.9994 21.1385 68.9994 21.8502V60.9502C68.9994 61.6618 68.7166 62.3443 68.2134 62.8476C67.7102 63.3508 67.0277 63.6335 66.316 63.6335H14.1827C13.471 63.6335 12.7885 63.3508 12.2853 62.8476C11.7821 62.3443 11.4993 61.6618 11.4993 60.9502V21.8502C11.4993 21.1385 11.7821 20.456 12.2853 19.9528C12.7885 19.4495 13.471 19.1668 14.1827 19.1668H66.316ZM66.316 15.3335H14.1827C12.4544 15.3335 10.7968 16.0201 9.5747 17.2422C8.35259 18.4643 7.66602 20.1218 7.66602 21.8502V60.9502C7.66602 62.6785 8.35259 64.336 9.5747 65.5581C10.7968 66.7803 12.4544 67.4668 14.1827 67.4668H66.316C68.0443 67.4668 69.7019 66.7803 70.924 65.5581C72.1461 64.336 72.8327 62.6785 72.8327 60.9502V21.8502C72.8327 20.1218 72.1461 18.4643 70.924 17.2422C69.7019 16.0201 68.0443 15.3335 66.316 15.3335Z" fill="#E34B9B"/>
<path d="M73.9827 77.0502H21.8493C19.6158 77.0401 17.4766 76.1483 15.8972 74.569C14.3178 72.9896 13.4261 70.8504 13.416 68.6168V66.1252H17.2493V68.6168C17.2493 69.8368 17.734 71.0069 18.5967 71.8695C19.4593 72.7322 20.6294 73.2168 21.8493 73.2168H73.9827C75.2027 73.2168 76.3727 72.7322 77.2354 71.8695C78.098 71.0069 78.5827 69.8368 78.5827 68.6168V29.5168C78.5827 28.2968 78.098 27.1268 77.2354 26.2641C76.3727 25.4015 75.2027 24.9168 73.9827 24.9168H71.376V21.0835H73.9827C76.2193 21.0835 78.3644 21.972 79.9459 23.5536C81.5275 25.1351 82.416 27.2802 82.416 29.5168V68.6168C82.4059 70.8504 81.5142 72.9896 79.9348 74.569C78.3554 76.1483 76.2162 77.0401 73.9827 77.0502Z" fill="#E34B9B"/>
<path d="M41.2088 45.9994C40.7579 45.9983 40.3225 45.835 39.9821 45.5394L12.1904 22.5394C11.799 22.2141 11.5529 21.7466 11.5062 21.2398C11.4594 20.733 11.6159 20.2283 11.9413 19.8369C12.2666 19.4455 12.7341 19.1994 13.2409 19.1526C13.7477 19.1059 14.2524 19.2624 14.6438 19.5878L41.2088 41.5911L67.7738 19.5878C68.1652 19.2624 68.6698 19.1059 69.1766 19.1526C69.6835 19.1994 70.151 19.4455 70.4763 19.8369C70.8016 20.2283 70.9581 20.733 70.9114 21.2398C70.8647 21.7466 70.6185 22.2141 70.2271 22.5394L42.4354 45.5394C42.095 45.835 41.6596 45.9983 41.2088 45.9994Z" fill="#E34B9B"/>
<path d="M59.416 38.3335C56.0043 38.3335 52.6692 39.3452 49.8324 41.2406C46.9957 43.1361 44.7847 45.8302 43.4791 48.9822C42.1735 52.1342 41.8319 55.6026 42.4975 58.9488C43.1631 62.295 44.806 65.3686 47.2184 67.7811C49.6309 70.1935 52.7045 71.8365 56.0507 72.502C59.3969 73.1676 62.8653 72.826 66.0173 71.5204C69.1693 70.2148 71.8634 68.0038 73.7589 65.1671C75.6543 62.3303 76.666 58.9952 76.666 55.5835C76.666 53.3182 76.2198 51.0751 75.353 48.9822C74.4861 46.8893 73.2154 44.9877 71.6136 43.3859C70.0118 41.7841 68.1102 40.5135 66.0173 39.6466C63.9244 38.7797 61.6813 38.3335 59.416 38.3335ZM66.5077 60.4135H59.416C58.9077 60.4135 58.4202 60.2116 58.0607 59.8521C57.7013 59.4927 57.4994 59.0052 57.4994 58.4968V47.9168C57.4994 47.4085 57.7013 46.921 58.0607 46.5615C58.4202 46.2021 58.9077 46.0002 59.416 46.0002C59.9244 46.0002 60.4119 46.2021 60.7713 46.5615C61.1308 46.921 61.3327 47.4085 61.3327 47.9168V56.5802H66.5077C67.016 56.5802 67.5035 56.7821 67.863 57.1415C68.2224 57.501 68.4244 57.9885 68.4244 58.4968C68.4244 59.0052 68.2224 59.4927 67.863 59.8521C67.5035 60.2116 67.016 60.4135 66.5077 60.4135Z" fill="#E34B9B"/>
</svg>
