<svg width="92" height="92" viewBox="0 0 92 92" fill="none" xmlns="http://www.w3.org/2000/svg">
<path d="M69.8424 78.5829H59.6074V74.7496H69.8424C71.1437 74.7496 72.3918 74.2326 73.312 73.3125C74.2321 72.3923 74.7491 71.1442 74.7491 69.8429V59.6079H78.5824V69.8429C78.5824 72.1609 77.6616 74.384 76.0225 76.023C74.3835 77.6621 72.1604 78.5829 69.8424 78.5829Z" fill="#E34B9B"/>
<path d="M78.5827 32.5832H74.7494V22.1182C74.7494 21.4756 74.6222 20.8394 74.3751 20.2462C74.1281 19.6531 73.7661 19.1147 73.3099 18.6621C72.8538 18.2095 72.3126 17.8517 71.7175 17.6094C71.1224 17.367 70.4852 17.2448 69.8427 17.2498H59.416V13.4165H69.8427C72.154 13.4165 74.3713 14.332 76.0093 15.9628C77.6473 17.5936 78.5725 19.8068 78.5827 22.1182V32.5832Z" fill="#E34B9B"/>
<path d="M17.2493 32.5832H13.416V22.1182C13.4262 19.8068 14.3514 17.5936 15.9894 15.9628C17.6274 14.332 19.8447 13.4165 22.156 13.4165H32.161V17.2498H22.156C21.5135 17.2448 20.8763 17.367 20.2812 17.6094C19.6861 17.8517 19.1449 18.2095 18.6888 18.6621C18.2326 19.1147 17.8706 19.6531 17.6236 20.2462C17.3765 20.8394 17.2493 21.4756 17.2493 22.1182V32.5832Z" fill="#E34B9B"/>
<path d="M32.3527 78.5829H22.156C19.838 78.5829 17.615 77.6621 15.9759 76.023C14.3368 74.3839 13.416 72.1609 13.416 69.8429V59.8379H17.2493V69.8429C17.2493 71.1442 17.7663 72.3923 18.6865 73.3124C19.6067 74.2326 20.8547 74.7496 22.156 74.7496H32.3527V78.5829Z" fill="#E34B9B"/>
<path d="M38.3333 38.3333H23V23H38.3333V38.3333ZM26.8333 34.5H34.5V26.8333H26.8333V34.5Z" fill="#E34B9B"/>
<path d="M38.3333 68.9998H23V53.6665H38.3333V68.9998ZM26.8333 65.1665H34.5V57.4998H26.8333V65.1665Z" fill="#E34B9B"/>
<path d="M68.9994 38.3333H53.666V23H68.9994V38.3333ZM57.4993 34.5H65.166V26.8333H57.4993V34.5Z" fill="#E34B9B"/>
<path d="M49.8327 47.9168H24.916V44.0835H45.9993V26.8335H49.8327V47.9168Z" fill="#E34B9B"/>
<path d="M67.0827 68.9998H42.166V53.6665H45.9993V65.1665H67.0827V68.9998Z" fill="#E34B9B"/>
<path d="M57.4994 44.0835H53.666V59.4168H57.4994V44.0835Z" fill="#E34B9B"/>
<path d="M65.1673 44.0835H61.334V59.4168H65.1673V44.0835Z" fill="#E34B9B"/>
</svg>
