<svg width="92" height="92" viewBox="0 0 92 92" fill="none" xmlns="http://www.w3.org/2000/svg">
<path d="M41.8606 61.3329H28.7507C28.2423 61.3329 27.7548 61.1309 27.3954 60.7715C27.0359 60.4121 26.834 59.9245 26.834 59.4162V32.5829C26.834 32.0745 27.0359 31.587 27.3954 31.2276C27.7548 30.8681 28.2423 30.6662 28.7507 30.6662H70.9173C71.4256 30.6662 71.9132 30.8681 72.2726 31.2276C72.632 31.587 72.834 32.0745 72.834 32.5829V45.9995C72.834 46.5079 73.0359 46.9954 73.3954 47.3548C73.7548 47.7143 74.2423 47.9162 74.7506 47.9162C75.259 47.9162 75.7465 47.7143 76.1059 47.3548C76.4654 46.9954 76.6673 46.5079 76.6673 45.9995V32.5829C76.6673 31.0579 76.0615 29.5953 74.9832 28.517C73.9048 27.4387 72.4423 26.8329 70.9173 26.8329H65.1673C65.2252 26.5547 65.2252 26.2677 65.1673 25.9895V21.0829C65.18 19.6745 64.6753 18.3105 63.749 17.2495C63.5867 17.048 63.3853 16.8815 63.1569 16.7599C62.9285 16.6383 62.6778 16.5643 62.42 16.5422C62.1623 16.5201 61.9027 16.5504 61.6569 16.6313C61.4112 16.7122 61.1843 16.842 60.9901 17.013C60.7958 17.1839 60.6382 17.3924 60.5267 17.6258C60.4152 17.8593 60.3522 18.113 60.3413 18.3715C60.3305 18.63 60.3721 18.888 60.4636 19.13C60.5552 19.372 60.6948 19.5929 60.874 19.7795C61.1841 20.1417 61.3481 20.6063 61.334 21.0829V25.9895C61.3378 26.281 61.4031 26.5684 61.5256 26.8329H28.7507C27.2257 26.8329 25.7631 27.4387 24.6848 28.517C23.6065 29.5953 23.0007 31.0579 23.0007 32.5829V49.8329H17.2507C16.7423 49.8329 16.2548 50.0348 15.8954 50.3943C15.5359 50.7537 15.334 51.2412 15.334 51.7495C15.334 52.2579 15.5359 52.7454 15.8954 53.1048C16.2548 53.4643 16.7423 53.6662 17.2507 53.6662H23.0007V59.4162C23.0007 60.9412 23.6065 62.4037 24.6848 63.4821C25.7631 64.5604 27.2257 65.1662 28.7507 65.1662H41.8606C42.3659 65.1564 42.8477 64.9513 43.2051 64.594C43.5624 64.2366 43.7675 63.7548 43.7773 63.2495C43.7773 62.7412 43.5754 62.2537 43.2159 61.8943C42.8565 61.5348 42.369 61.3329 41.8606 61.3329Z" fill="#E34B9B"/>
<path d="M16.9425 19.1668H24.3792C24.8844 19.157 25.3663 18.9519 25.7236 18.5946C26.081 18.2373 26.286 17.7554 26.2959 17.2502C26.2959 16.7418 26.0939 16.2543 25.7345 15.8949C25.375 15.5354 24.8875 15.3335 24.3792 15.3335H16.4059C16.1632 15.3742 15.9315 15.4642 15.7249 15.5979C15.5184 15.7316 15.3414 15.9062 15.2049 16.1109C15.0685 16.3157 14.9753 16.5462 14.9314 16.7882C14.8874 17.0303 14.8934 17.2788 14.9492 17.5185C15.0312 17.9854 15.2769 18.4078 15.6422 18.7099C16.0075 19.012 16.4685 19.174 16.9425 19.1668Z" fill="#E34B9B"/>
<path d="M32.0475 19.1668H39.7142C40.2194 19.157 40.7013 18.9519 41.0586 18.5946C41.416 18.2373 41.621 17.7554 41.6309 17.2502C41.6309 16.7418 41.4289 16.2543 41.0695 15.8949C40.71 15.5354 40.2225 15.3335 39.7142 15.3335H32.0475C31.5392 15.3335 31.0517 15.5354 30.6922 15.8949C30.3328 16.2543 30.1309 16.7418 30.1309 17.2502C30.1309 17.7585 30.3328 18.246 30.6922 18.6054C31.0517 18.9649 31.5392 19.1668 32.0475 19.1668Z" fill="#E34B9B"/>
<path d="M47.3796 19.1668H55.0462C55.5515 19.157 56.0333 18.9519 56.3907 18.5946C56.748 18.2373 56.9531 17.7554 56.9629 17.2502C56.9629 16.7418 56.761 16.2543 56.4015 15.8949C56.0421 15.5354 55.5546 15.3335 55.0462 15.3335H47.3796C46.8712 15.3335 46.3837 15.5354 46.0243 15.8949C45.6648 16.2543 45.4629 16.7418 45.4629 17.2502C45.4629 17.7585 45.6648 18.246 46.0243 18.6054C46.3837 18.9649 46.8712 19.1668 47.3796 19.1668Z" fill="#E34B9B"/>
<path d="M15.3333 38.6012C15.3333 38.0929 15.1314 37.6054 14.772 37.246C14.4125 36.8865 13.925 36.6846 13.4167 36.6846C12.9083 36.6846 12.4208 36.8865 12.0614 37.246C11.7019 37.6054 11.5 38.0929 11.5 38.6012V46.2679C11.5 46.7762 11.7019 47.2637 12.0614 47.6232C12.4208 47.9826 12.9083 48.1846 13.4167 48.1846C13.925 48.1846 14.4125 47.9826 14.772 47.6232C15.1314 47.2637 15.3333 46.7762 15.3333 46.2679V38.6012Z" fill="#E34B9B"/>
<path d="M13.4167 32.8516C13.925 32.8516 14.4125 32.6496 14.772 32.2902C15.1314 31.9307 15.3333 31.4432 15.3333 30.9349V23.2682C15.3333 22.7599 15.1314 22.2724 14.772 21.9129C14.4125 21.5535 13.925 21.3516 13.4167 21.3516C12.9083 21.3516 12.4208 21.5535 12.0614 21.9129C11.7019 22.2724 11.5 22.7599 11.5 23.2682V30.9349C11.5 31.4432 11.7019 31.9307 12.0614 32.2902C12.4208 32.6496 12.9083 32.8516 13.4167 32.8516Z" fill="#E34B9B"/>
<path d="M79.1972 55.0468L46.6139 44.1601C46.2761 44.0608 45.9183 44.051 45.5756 44.1316C45.2328 44.2123 44.917 44.3806 44.6589 44.6201C44.399 44.8734 44.2147 45.194 44.1267 45.546C44.0387 45.8981 44.0504 46.2677 44.1605 46.6134L55.0472 79.1968C55.1795 79.5713 55.4228 79.8967 55.7447 80.1295C56.0666 80.3624 56.4517 80.4916 56.8489 80.5001C57.2761 80.4727 57.6818 80.303 58.0014 80.0182C58.321 79.7333 58.536 79.3497 58.6122 78.9284L61.9855 62.1001L78.8522 58.7268C79.3605 58.7573 79.8602 58.5846 80.2412 58.2467C80.6222 57.9088 80.8534 57.4334 80.8839 56.9251C80.9144 56.4168 80.7417 55.9171 80.4038 55.5361C80.0659 55.1551 79.5905 54.9239 79.0822 54.8934L79.1972 55.0468ZM60.0305 58.5734C59.657 58.6512 59.3152 58.8387 59.0489 59.1118C58.7826 59.385 58.6038 59.7314 58.5355 60.1068L56.3122 71.1084L48.9522 49.0284L71.0322 56.3884L60.0305 58.5734Z" fill="#E34B9B"/>
</svg>
