<svg width="104" height="104" viewBox="0 0 104 104" fill="none" xmlns="http://www.w3.org/2000/svg">
<path d="M39.7359 91.0009C34.4699 91.0095 29.3198 89.4552 24.9378 86.5349C20.5557 83.6147 17.1387 79.4597 15.1196 74.5962C13.1004 69.7327 12.5698 64.3794 13.5951 59.2142C14.6203 54.049 17.1552 49.3041 20.8789 45.5805C24.6025 41.8569 29.3473 39.322 34.5125 38.2967C39.6778 37.2715 45.0311 37.802 49.8946 39.8212C54.758 41.8404 58.913 45.2573 61.8333 49.6394C64.7536 54.0215 66.3078 59.1716 66.2993 64.4376C66.2878 71.4791 63.4855 78.2289 58.5064 83.208C53.5273 88.1871 46.7774 90.9894 39.7359 91.0009ZM39.7359 42.1642C35.3288 42.1557 31.0183 43.4547 27.3497 45.8969C23.6812 48.3391 20.8196 51.8147 19.1272 55.8839C17.4347 59.953 16.9874 64.4328 17.842 68.7563C18.6965 73.0797 20.8144 77.0525 23.9276 80.1718C27.0409 83.2911 31.0095 85.4168 35.3313 86.2797C39.6531 87.1426 44.1337 86.7041 48.2062 85.0196C52.2786 83.335 55.7598 80.4802 58.2092 76.8165C60.6585 73.1527 61.9659 68.8447 61.9659 64.4376C61.9888 61.5017 61.431 58.5903 60.3246 55.8707C59.2182 53.1512 57.585 50.6772 55.5191 48.5911C53.4531 46.5051 50.9951 44.848 48.2865 43.7153C45.5778 42.5826 42.6719 41.9965 39.7359 41.9909V42.1642Z" fill="#FDF3F8"/>
<path d="M64.3075 91.0004C59.0686 90.9746 53.9544 89.4002 49.608 86.4753C45.2616 83.5504 41.8771 79.4056 39.8803 74.5621C37.8834 69.7187 37.3634 64.3929 38.3855 59.2547C39.4076 54.1165 41.9263 49.3952 45.6248 45.6847C49.3233 41.9742 54.0364 39.4403 59.1713 38.4015C64.3062 37.3627 69.6336 37.8655 74.4835 39.8466C79.3333 41.8277 83.4891 45.1987 86.4281 49.5356C89.3671 53.8725 90.958 58.9816 91.0008 64.2204C91.0237 67.7363 90.3496 71.2219 89.0173 74.4756C87.685 77.7294 85.7211 80.6869 83.2389 83.1771C80.7568 85.6673 77.8057 87.6408 74.5562 88.9836C71.3068 90.3265 67.8234 91.0119 64.3075 91.0004ZM64.3075 42.207C59.9072 42.233 55.6137 43.5642 51.9706 46.0322C48.3275 48.5001 45.4989 51.9938 43.8428 56.0706C42.1868 60.1474 41.778 64.6239 42.668 68.9333C43.5581 73.2426 45.7071 77.1909 48.8428 80.278C51.9785 83.365 55.9599 85.4521 60.2826 86.2747C64.6053 87.0974 69.0749 86.6186 73.1254 84.8991C77.1758 83.1796 80.6248 80.2967 83.0355 76.6155C85.4463 72.9343 86.7103 68.6205 86.6675 64.2204C86.6675 61.2901 86.0882 58.3888 84.963 55.6832C83.8377 52.9776 82.1886 50.5212 80.1105 48.4553C78.0325 46.3893 75.5665 44.7546 72.8544 43.6451C70.1423 42.5356 67.2377 41.9732 64.3075 41.9904V42.207Z" fill="#FDF3F8"/>
<path d="M43.549 18.0271C40.429 16.5971 37.2223 19.8905 36.8757 20.2805C36.529 19.8905 33.3223 16.5971 30.2023 18.0271C29.3263 18.1634 28.5132 18.5651 27.8727 19.178C27.2321 19.7909 26.795 20.5855 26.6202 21.4547C26.4454 22.3238 26.5414 23.2257 26.8953 24.0385C27.2491 24.8514 27.8438 25.5362 28.599 26.0005C31.0124 28.504 33.5583 30.8762 36.2257 33.1071C36.4121 33.2558 36.6382 33.3462 36.8757 33.3671C37.1152 33.3548 37.3438 33.2633 37.5257 33.1071C40.1992 30.8675 42.759 28.4957 45.1957 26.0005C45.8601 25.4776 46.3656 24.78 46.6557 23.9859C46.9457 23.1918 47.0088 22.3326 46.8378 21.5046C46.6668 20.6767 46.2685 19.9127 45.6876 19.2985C45.1067 18.6842 44.3662 18.244 43.549 18.0271Z" fill="#FDF3F8"/>
<path d="M71.8459 18.0271C68.7259 16.5971 65.5192 19.8905 65.1725 20.2805C64.8259 19.8905 61.6192 16.5971 58.4992 18.0271C57.6232 18.1634 56.8101 18.5651 56.1695 19.178C55.529 19.7909 55.0918 20.5855 54.9171 21.4547C54.7423 22.3238 54.8383 23.2257 55.1922 24.0385C55.546 24.8514 56.1407 25.5362 56.8959 26.0005C59.5826 28.9038 63.0492 32.0238 64.5225 33.3238C64.677 33.3697 64.839 33.3845 64.9992 33.3671C65.2501 33.3471 65.4904 33.257 65.6925 33.1071C67.1659 31.8071 70.6325 28.7738 73.3192 25.7838C74.0008 25.3046 74.5297 24.6391 74.8427 23.867C75.1558 23.0948 75.2395 22.2488 75.0841 21.4303C74.9286 20.6118 74.5405 19.8554 73.9661 19.2519C73.3918 18.6483 72.6557 18.223 71.8459 18.0271Z" fill="#FDF3F8"/>
</svg>
