<svg width="104" height="104" viewBox="0 0 104 104" fill="none" xmlns="http://www.w3.org/2000/svg">
<path d="M32.3256 51.9994C30.0887 51.9994 27.902 51.3361 26.0421 50.0933C24.1822 48.8506 22.7326 47.0842 21.8766 45.0175C21.0205 42.9509 20.7965 40.6769 21.2329 38.4829C21.6693 36.289 22.7465 34.2738 24.3283 32.692C25.91 31.1103 27.9252 30.0331 30.1192 29.5967C32.3131 29.1603 34.5871 29.3843 36.6538 30.2403C38.7204 31.0963 40.4868 32.546 41.7295 34.4059C42.9723 36.2658 43.6356 38.4525 43.6356 40.6894C43.6242 43.6855 42.429 46.5556 40.3104 48.6742C38.1918 50.7927 35.3217 51.988 32.3256 51.9994ZM32.3256 33.7127C30.9385 33.7132 29.583 34.1271 28.4322 34.9016C27.2814 35.6762 26.3877 36.7762 25.8651 38.0611C25.3425 39.3461 25.2149 40.7576 25.4984 42.1155C25.782 43.4734 26.4639 44.7159 27.457 45.6843C28.4501 46.6528 29.7094 47.3032 31.0739 47.5525C32.4385 47.8018 33.8464 47.6386 35.1178 47.0839C36.3892 46.5292 37.4663 45.6081 38.2117 44.4382C38.9571 43.2683 39.3368 41.9028 39.3023 40.5161C39.2909 38.6692 38.5522 36.9013 37.2463 35.5954C35.9404 34.2895 34.1724 33.5508 32.3256 33.5394V33.7127Z" fill="#FDF3F8"/>
<path d="M81.5969 51.9994H62.0103C61.6983 52.0025 61.3894 51.9381 61.1046 51.8108C60.8198 51.6835 60.5658 51.4961 60.3601 51.2616C60.1544 51.0271 60.0017 50.7509 59.9126 50.4519C59.8235 50.153 59.7999 49.8383 59.8436 49.5294C60.2047 46.6544 60.3928 43.7603 60.4069 40.8627C60.4069 37.8631 61.5985 34.9864 63.7196 32.8654C65.8406 30.7443 68.7173 29.5527 71.7169 29.5527C74.7165 29.5527 77.5933 30.7443 79.7143 32.8654C81.8354 34.9864 83.0269 37.8631 83.0269 40.8627C83.0269 43.5927 83.7203 49.7461 83.7636 49.8327C83.7895 50.1379 83.7529 50.4452 83.656 50.7358C83.5592 51.0263 83.4041 51.2941 83.2003 51.5227C82.7489 51.8855 82.1732 52.0567 81.5969 51.9994ZM64.2636 47.6661H79.0403C78.8236 45.5427 78.5636 42.4661 78.5636 40.6461C78.5636 38.7957 77.8286 37.0212 76.5202 35.7128C75.2118 34.4044 73.4373 33.6694 71.587 33.6694C69.7366 33.6694 67.9621 34.4044 66.6537 35.7128C65.3453 37.0212 64.6103 38.7957 64.6103 40.6461C64.7403 43.3327 64.5669 45.8027 64.3936 47.6661H64.2636Z" fill="#FDF3F8"/>
<path d="M43.6358 82.3327H21.6658C20.0143 82.3214 18.4338 81.6603 17.266 80.4925C16.0982 79.3248 15.4371 77.7442 15.4258 76.0927V68.7261C15.4258 65.2783 16.7954 61.9717 19.2334 59.5337C21.6714 57.0957 24.978 55.7261 28.4258 55.7261H37.0925C40.5403 55.7261 43.8469 57.0957 46.2848 59.5337C48.7228 61.9717 50.0924 65.2783 50.0924 68.7261V76.0927C50.093 76.9307 49.9247 77.7603 49.5976 78.5318C49.2706 79.3034 48.7915 80.0011 48.1889 80.5835C47.5863 81.1659 46.8726 81.6209 46.0903 81.9214C45.3081 82.2219 44.4733 82.3618 43.6358 82.3327ZM28.3391 60.0594C26.0406 60.0594 23.8362 60.9725 22.2109 62.5978C20.5855 64.2231 19.6724 66.4275 19.6724 68.7261V76.0927C19.6722 76.3506 19.7242 76.6058 19.8254 76.843C19.9266 77.0801 20.0748 77.2943 20.2612 77.4726C20.4475 77.6508 20.6681 77.7894 20.9095 77.8799C21.1509 77.9705 21.4082 78.0111 21.6658 77.9994H43.6791C44.1848 77.9994 44.6698 77.7985 45.0273 77.441C45.3849 77.0834 45.5858 76.5984 45.5858 76.0927V68.7261C45.5858 66.4275 44.6727 64.2231 43.0474 62.5978C41.4221 60.9725 39.2177 60.0594 36.9191 60.0594H28.3391Z" fill="#FDF3F8"/>
<path d="M82.3327 82.3328H60.406C58.7511 82.3328 57.1639 81.6753 55.9937 80.5051C54.8234 79.3349 54.166 77.7477 54.166 76.0927V68.7261C54.166 65.2783 55.5357 61.9717 57.9736 59.5337C60.4116 57.0957 63.7182 55.7261 67.166 55.7261H75.8327C79.2805 55.7261 82.5871 57.0957 85.0251 59.5337C87.4631 61.9717 88.8327 65.2783 88.8327 68.7261V76.0927C88.8274 76.9328 88.6537 77.7632 88.3219 78.535C87.9901 79.3067 87.5069 80.0041 86.9009 80.5859C86.2949 81.1676 85.5784 81.622 84.7937 81.922C84.0091 82.2221 83.1722 82.3617 82.3327 82.3328ZM67.036 60.1461C64.7375 60.1461 62.5331 61.0592 60.9078 62.6845C59.2824 64.3098 58.3694 66.5142 58.3694 68.8127V76.1794C58.3694 76.6851 58.5702 77.1701 58.9278 77.5276C59.2854 77.8852 59.7703 78.0861 60.276 78.0861H82.3327C82.8424 78.0862 83.332 77.8867 83.6964 77.5303C84.0609 77.174 84.2714 76.689 84.2827 76.1794V68.8127C84.2827 66.5142 83.3696 64.3098 81.7443 62.6845C80.119 61.0592 77.9146 60.1461 75.616 60.1461H67.036Z" fill="#FDF3F8"/>
<path d="M50.3542 34.19C49.7922 34.1766 49.2538 33.9612 48.8375 33.5834L40.9075 25.61C40.7083 25.4109 40.5504 25.1744 40.4426 24.9142C40.3348 24.6539 40.2793 24.375 40.2793 24.0934C40.2793 23.8117 40.3348 23.5328 40.4426 23.2725C40.5504 23.0123 40.7083 22.7759 40.9075 22.5767C41.3098 22.1745 41.8553 21.9485 42.4242 21.9485C42.7059 21.9485 42.9848 22.004 43.245 22.1117C43.5052 22.2195 43.7417 22.3775 43.9409 22.5767L50.3542 28.99L63.0075 16.3367C63.209 16.1336 63.4486 15.9724 63.7126 15.8624C63.9766 15.7524 64.2598 15.6958 64.5459 15.6958C64.8319 15.6958 65.1151 15.7524 65.3791 15.8624C65.6431 15.9724 65.8828 16.1336 66.0842 16.3367C66.4839 16.749 66.7075 17.3007 66.7075 17.875C66.7075 18.4493 66.4839 19.001 66.0842 19.4134L52.0009 33.5834C51.5515 33.9915 50.961 34.2091 50.3542 34.19Z" fill="#FDF3F8"/>
</svg>
