<svg width="104" height="104" viewBox="0 0 104 104" fill="none" xmlns="http://www.w3.org/2000/svg">
<path d="M90.9993 53.6904C90.4649 52.9666 89.7862 52.3616 89.0059 51.9137C90.4243 50.8301 91.36 49.2325 91.6113 47.4654C91.8626 45.6982 91.4093 43.9031 90.3493 42.4671C89.8267 41.7917 89.1973 41.2062 88.4859 40.7337L89.0059 40.3437C90.4161 39.29 91.3758 37.7421 91.6926 36.0104C91.9408 34.2289 91.4734 32.4216 90.3926 30.9837C89.3574 29.5534 87.8007 28.5883 86.0593 28.2971C84.5543 28.1218 83.0332 28.4413 81.7259 29.2071C81.5219 28.3423 81.138 27.5303 80.5993 26.8237C80.0723 26.1039 79.4079 25.4955 78.6447 25.0336C77.8814 24.5717 77.0342 24.2654 76.1521 24.1325C75.2699 23.9996 74.3701 24.0426 73.5046 24.259C72.6391 24.4755 71.825 24.8611 71.1093 25.3937L56.5493 35.9237L55.8559 34.9704L62.0526 30.3337C63.4631 29.2875 64.4112 27.7334 64.6959 26.0004C64.8372 25.1211 64.7986 24.2223 64.5826 23.3583C64.3666 22.4943 63.9777 21.6831 63.4393 20.9737C62.9123 20.2539 62.248 19.6455 61.4847 19.1836C60.7214 18.7217 59.8742 18.4154 58.9921 18.2825C58.1099 18.1496 57.2101 18.1926 56.3446 18.409C55.4791 18.6255 54.665 19.0112 53.9493 19.5437L39.5626 30.3337L37.7426 27.8637C37.2747 27.2127 36.6807 26.6623 35.9958 26.2454C35.3109 25.8285 34.5492 25.5536 33.7559 25.4371C32.2216 25.2594 30.6761 25.6612 29.4226 26.5637L21.1026 32.3704C19.2173 33.8281 17.7274 35.7351 16.7693 37.9171L10.1826 52.0004C10.1826 52.0004 10.1826 52.3471 10.1826 52.4771L7.36594 58.7604C6.9469 59.7183 6.78256 60.7683 6.88885 61.8085C6.99515 62.8486 7.36847 63.8437 7.97261 64.6971L20.9726 83.4171C21.3364 83.9548 21.8274 84.3943 22.4019 84.6967C22.9764 84.9991 23.6167 85.1549 24.2659 85.1504H30.0726C30.6472 85.1504 31.1983 84.9221 31.6047 84.5158C32.011 84.1095 32.2393 83.5584 32.2393 82.9837C32.2393 82.4091 32.011 81.858 31.6047 81.4517C31.1983 81.0453 30.6472 80.8171 30.0726 80.8171H24.4393L11.4393 62.0104C11.2904 61.7616 11.2117 61.477 11.2117 61.1871C11.2117 60.8971 11.2904 60.6126 11.4393 60.3637L14.3859 53.7337C14.3859 53.7337 14.3859 53.4304 14.3859 53.3004L20.5826 39.7371C21.271 38.203 22.3461 36.874 23.7026 35.8804L31.8059 29.8571C32.1771 29.5756 32.6439 29.4511 33.1059 29.5104C33.3426 29.5568 33.5661 29.6546 33.7608 29.7968C33.9555 29.9391 34.1165 30.1224 34.2326 30.3337L36.0959 32.8037L23.0959 42.3804C22.8655 42.5483 22.6703 42.7599 22.5216 43.0032C22.373 43.2465 22.2736 43.5167 22.2294 43.7983C22.1851 44.08 22.1968 44.3677 22.2637 44.6448C22.3306 44.922 22.4514 45.1833 22.6193 45.4137C22.7871 45.6442 22.9988 45.8394 23.2421 45.988C23.4854 46.1367 23.7555 46.236 24.0372 46.2803C24.3189 46.3246 24.6065 46.3129 24.8837 46.246C25.1609 46.1791 25.4221 46.0583 25.6526 45.8904L30.3326 42.4671L56.6793 22.9671C57.1993 22.5743 57.8535 22.403 58.4993 22.4904C59.1414 22.5968 59.7155 22.9524 60.0969 23.4799C60.4783 24.0073 60.636 24.6639 60.5359 25.3071C60.493 25.6247 60.3864 25.9304 60.2226 26.2059C60.0588 26.4814 59.8411 26.721 59.5826 26.9104L52.9093 31.8071C51.8852 31.2052 50.7069 30.9172 49.5206 30.9788C48.3343 31.0404 47.1922 31.449 46.2359 32.1537L38.0893 38.1771C36.1946 39.6253 34.7027 41.5349 33.7559 43.7237L27.1693 57.9804C27.1484 58.1531 27.1484 58.3277 27.1693 58.5004L24.4393 64.5671C24.0184 65.5343 23.8569 66.5946 23.9709 67.6433C24.0849 68.692 24.4704 69.6928 25.0893 70.5471L38.4793 88.6171C39.0489 89.3625 39.7836 89.9658 40.6257 90.3793C41.4679 90.7929 42.3944 91.0055 43.3326 91.0004H50.3526C51.6154 90.9825 52.8416 90.5738 53.8626 89.8304L78.8659 71.2837L89.6559 63.2671C90.3676 62.7578 90.9713 62.1127 91.4325 61.369C91.8936 60.6253 92.2029 59.7976 92.3426 58.9337C92.492 58.0144 92.4498 57.074 92.2186 56.1717C91.9874 55.2695 91.5723 54.4247 90.9993 53.6904ZM87.0126 59.7137L77.9993 66.4737L74.5326 69.0304L66.8626 74.7071L51.3059 86.2771C51.0238 86.4674 50.6929 86.5727 50.3526 86.5804L43.3326 86.6671C43.0763 86.6638 42.8244 86.5992 42.5982 86.4786C42.3721 86.3579 42.1781 86.1848 42.0326 85.9737L28.5126 67.9471C28.3675 67.7048 28.2909 67.4278 28.2909 67.1454C28.2909 66.863 28.3675 66.586 28.5126 66.3437L31.4593 59.7137C31.4593 59.7137 31.4593 59.4104 31.4593 59.2371L37.5693 45.5004C38.2692 43.9734 39.3422 42.6471 40.6893 41.6437L48.7926 35.6204C48.9773 35.4861 49.1868 35.3896 49.4089 35.3365C49.6311 35.2834 49.8615 35.2747 50.087 35.3109C50.3125 35.3472 50.5286 35.4276 50.7229 35.5477C50.9173 35.6677 51.0859 35.825 51.2193 36.0104L53.0826 38.4804L40.0826 48.0571C39.8193 48.21 39.5912 48.4167 39.4132 48.6636C39.2351 48.9106 39.1111 49.1924 39.0492 49.4905C38.9874 49.7886 38.989 50.0964 39.0541 50.3938C39.1192 50.6913 39.2463 50.9717 39.427 51.2167C39.6077 51.4617 39.838 51.6659 40.103 51.816C40.3679 51.966 40.6615 52.0586 40.9646 52.0875C41.2677 52.1165 41.5734 52.0813 41.862 51.9841C42.1506 51.887 42.4154 51.7301 42.6393 51.5237L46.9726 48.2737L54.6426 42.5971L58.1093 39.9971L73.6659 28.7304C74.1908 28.351 74.8437 28.1929 75.484 28.2901C76.1243 28.3874 76.7008 28.7322 77.0893 29.2504C77.2852 29.5064 77.425 29.8007 77.4996 30.1143C77.5743 30.4278 77.5821 30.7536 77.5226 31.0704C77.4804 31.3943 77.3745 31.7066 77.2109 31.9892C77.0472 32.2719 76.8291 32.5193 76.5693 32.7171L61.3593 43.9404L57.8926 46.5404L50.2659 52.2171C50.035 52.3846 49.8394 52.596 49.6903 52.8393C49.5413 53.0826 49.4418 53.3529 49.3975 53.6347C49.3532 53.9166 49.365 54.2044 49.4323 54.4816C49.4995 54.7589 49.6208 55.0201 49.7893 55.2504C49.96 55.478 50.1739 55.6698 50.4187 55.8148C50.6635 55.9597 50.9345 56.0551 51.2162 56.0953C51.4979 56.1355 51.7847 56.1199 52.0603 56.0493C52.336 55.9787 52.595 55.8545 52.8226 55.6837L60.4926 50.0504L63.9593 47.4504L83.5459 32.9337C83.8015 32.7344 84.095 32.5893 84.4086 32.5073C84.7221 32.4253 85.0491 32.4081 85.3695 32.4568C85.69 32.5055 85.9971 32.619 86.2721 32.7904C86.5472 32.9618 86.7844 33.1875 86.9693 33.4537C87.362 33.9738 87.5334 34.6279 87.4459 35.2737C87.3953 35.594 87.2811 35.9009 87.1099 36.1763C86.9387 36.4517 86.7141 36.69 86.4493 36.8771L66.7759 51.4371L63.3093 54.0371L55.6826 59.7137C55.4531 59.8772 55.2584 60.0848 55.1099 60.3243C54.9614 60.5639 54.8621 60.8305 54.8177 61.1088C54.7733 61.3871 54.7848 61.6715 54.8515 61.9453C54.9181 62.2191 55.0386 62.477 55.2059 62.7037C55.3734 62.9347 55.5849 63.1303 55.8282 63.2793C56.0714 63.4284 56.3417 63.5279 56.6236 63.5722C56.9054 63.6164 57.1932 63.6046 57.4705 63.5374C57.7478 63.4702 58.009 63.3489 58.2393 63.1804L65.8659 57.5037L69.3759 54.9471L83.4593 44.5037C83.9793 44.111 84.6335 43.9396 85.2793 44.0271C85.5995 44.0777 85.9064 44.1919 86.1818 44.3631C86.4572 44.5343 86.6955 44.7589 86.8826 45.0237C87.262 45.5486 87.4201 46.2015 87.3229 46.8418C87.2256 47.4821 86.8808 48.0586 86.3626 48.4471L72.3226 58.9337L68.8559 61.4904L61.1859 67.1671C60.7357 67.5186 60.439 68.0309 60.3582 68.5964C60.2774 69.162 60.4188 69.7368 60.7526 70.2004C61.1042 70.6507 61.6164 70.9473 62.182 71.0281C62.7475 71.1089 63.3223 70.9676 63.7859 70.6337L71.4993 65.0004L75.0093 62.4437L84.1093 55.6837C84.368 55.4869 84.663 55.343 84.9774 55.2604C85.2918 55.1777 85.6195 55.158 85.9416 55.2023C86.2636 55.2466 86.5738 55.354 86.8543 55.5184C87.1347 55.6828 87.38 55.901 87.5759 56.1604C87.9451 56.6905 88.0999 57.3408 88.0093 57.9804C87.9784 58.3194 87.8778 58.6484 87.7137 58.9467C87.5496 59.245 87.3257 59.5061 87.0559 59.7137H87.0126Z" fill="#FDF3F8"/>
</svg>
