<svg width="104" height="104" viewBox="0 0 104 104" fill="none" xmlns="http://www.w3.org/2000/svg">
<path d="M81.9867 17.3333C83.1359 17.3333 84.2381 17.7899 85.0508 18.6025C85.8635 19.4152 86.32 20.5174 86.32 21.6667V60.6667C86.32 61.8159 85.8635 62.9181 85.0508 63.7308C84.2381 64.5435 83.1359 65 81.9867 65H21.6667C20.5174 65 19.4152 64.5435 18.6025 63.7308C17.7899 62.9181 17.3333 61.8159 17.3333 60.6667V21.6667C17.3333 20.5174 17.7899 19.4152 18.6025 18.6025C19.4152 17.7899 20.5174 17.3333 21.6667 17.3333H82.3333H81.9867ZM82.3333 13H21.6667C19.3681 13 17.1637 13.9131 15.5384 15.5384C13.9131 17.1637 13 19.3681 13 21.6667V60.6667C13 62.9652 13.9131 65.1696 15.5384 66.7949C17.1637 68.4202 19.3681 69.3333 21.6667 69.3333H82.3333C84.6319 69.3333 86.8363 68.4202 88.4616 66.7949C90.0869 65.1696 91 62.9652 91 60.6667V21.6667C91 19.3681 90.0869 17.1637 88.4616 15.5384C86.8363 13.9131 84.6319 13 82.3333 13Z" fill="#FDF3F8"/>
<path d="M58.1103 38.9996C57.8067 38.9753 57.5019 39.0258 57.2224 39.1467C56.9428 39.2676 56.6972 39.4551 56.507 39.6929C56.0913 40.2871 55.8924 41.0062 55.9436 41.7296C55.8917 42.4395 56.0911 43.1451 56.507 43.7229C56.6951 43.9658 56.9391 44.1596 57.2183 44.2879C57.4975 44.4161 57.8035 44.475 58.1103 44.4596C58.4105 44.4716 58.7091 44.4109 58.9807 44.2827C59.2523 44.1544 59.4889 43.9623 59.6703 43.7229C60.102 43.1678 60.3176 42.4749 60.277 41.7729C60.3151 41.031 60.1013 40.298 59.6703 39.6929C59.4868 39.4586 59.2486 39.2729 58.9766 39.152C58.7047 39.0311 58.4072 38.9788 58.1103 38.9996Z" fill="#FDF3F8"/>
<path d="M51.9994 23.9199C48.5712 23.9199 45.2199 24.9365 42.3695 26.8411C39.519 28.7457 37.2974 31.4528 35.9854 34.6201C34.6735 37.7873 34.3303 41.2725 34.9991 44.6348C35.6679 47.9972 37.3187 51.0857 39.7428 53.5098C42.167 55.9339 45.2555 57.5847 48.6178 58.2535C51.9801 58.9223 55.4653 58.5791 58.6325 57.2672C61.7998 55.9552 64.5069 53.7336 66.4115 50.8831C68.3161 48.0327 69.3327 44.6815 69.3327 41.2533C69.3327 36.6562 67.5065 32.2474 64.2559 28.9967C61.0053 25.7461 56.5964 23.9199 51.9994 23.9199ZM49.5727 45.8033L47.666 41.9033C47.4913 41.5845 47.2376 41.3159 46.9294 41.1233C46.5872 40.9768 46.2182 40.903 45.846 40.9066H44.156V45.8033H41.946V33.5833H47.3627C48.4989 33.4977 49.6263 33.8375 50.526 34.5366C50.8886 34.8714 51.1735 35.2815 51.3607 35.7382C51.5478 36.1948 51.6327 36.6869 51.6094 37.1799C51.6504 38.0374 51.355 38.877 50.786 39.5199C50.2106 40.1587 49.4277 40.5731 48.576 40.6899C48.919 40.7983 49.2352 40.9779 49.504 41.2168C49.7728 41.4558 49.9882 41.7487 50.136 42.0766L52.1727 45.8033H49.5727ZM61.7927 43.8966C61.4899 44.514 61.0257 45.0381 60.4494 45.4133C59.8614 45.7669 59.1854 45.9472 58.4994 45.9333C57.9441 45.9567 57.392 45.8373 56.896 45.5866C56.4229 45.343 56.0313 44.9665 55.7694 44.5033V48.8366H53.6027V37.3533H55.7694V38.6099C56.0014 38.1394 56.3822 37.7586 56.8527 37.5266C57.3603 37.2608 57.9265 37.1267 58.4994 37.1366C59.2649 37.0692 60.0302 37.2682 60.666 37.6999C61.253 38.0817 61.719 38.6228 62.0094 39.2599C62.3376 39.9956 62.5003 40.7944 62.486 41.5999C62.4832 42.3943 62.3057 43.1784 61.966 43.8966H61.7927Z" fill="#FDF3F8"/>
<path d="M49.4866 37.2665C49.5107 36.9903 49.4682 36.7123 49.3626 36.456C49.257 36.1996 49.0915 35.9723 48.8799 35.7932C48.3283 35.4334 47.6733 35.2658 47.0166 35.3165H44.1133V38.9998H47.0166C47.675 39.0722 48.3372 38.9028 48.8799 38.5232C49.0647 38.369 49.2144 38.1771 49.319 37.9604C49.4237 37.7436 49.4808 37.5071 49.4866 37.2665Z" fill="#FDF3F8"/>
<path d="M69.3333 90.9998H34.6667C34.092 90.9998 33.5409 90.7716 33.1346 90.3652C32.7283 89.9589 32.5 89.4078 32.5 88.8332C32.5 88.2585 32.7283 87.7074 33.1346 87.3011C33.5409 86.8948 34.092 86.6665 34.6667 86.6665H69.3333C69.9045 86.6776 70.4492 86.9094 70.8531 87.3134C71.2571 87.7173 71.4889 88.262 71.5 88.8332C71.5 89.4078 71.2717 89.9589 70.8654 90.3652C70.4591 90.7716 69.908 90.9998 69.3333 90.9998Z" fill="#FDF3F8"/>
<path d="M62.7467 91H41.0801V65H62.7467V91ZM45.4134 86.6667H58.4134V69.3333H45.4134V86.6667Z" fill="#FDF3F8"/>
</svg>
